<svg width="29" height="20" viewBox="0 0 29 20" fill="none" xmlns="http://www.w3.org/2000/svg">
<path d="M24.748 2.58C23.716 0.86 21.824 0 19.76 0H9.43998C7.37598 0 5.48398 0.86 4.45198 2.58C0.495975 8.6 -0.364025 17.716 2.38798 19.608C5.13998 21.5 11.332 13.244 14.6 13.244C17.868 13.244 23.888 21.5 26.812 19.608C29.564 17.716 28.704 8.6 24.748 2.58ZM11.16 8.6H9.43998V10.32H7.71998V8.6H5.99998V6.88H7.71998V5.16H9.43998V6.88H11.16V8.6ZM20.448 9.46C20.448 10.32 19.76 11.008 18.9 11.008C18.04 11.008 17.352 10.32 17.352 9.46C17.352 8.6 18.04 7.912 18.9 7.912C19.76 7.912 20.448 8.6 20.448 9.46ZM23.716 6.02C23.716 6.88 23.028 7.568 22.168 7.568C21.308 7.568 20.62 6.88 20.62 6.02C20.62 5.16 21.308 4.472 22.168 4.472C23.028 4.472 23.716 5.16 23.716 6.02Z" fill="#E8400F"/>
</svg>
