<svg width="24" height="24" viewBox="0 0 24 24" fill="none" xmlns="http://www.w3.org/2000/svg">
<path fill-rule="evenodd" clip-rule="evenodd" d="M12 2C6.477 2 2 6.477 2 12C2 17.523 6.477 22 12 22C17.523 22 22 17.523 22 12C22 6.477 17.523 2 12 2ZM0 12C0 5.3725 5.3725 0 12 0C18.6275 0 24 5.3725 24 12C24 18.6275 18.6275 24 12 24C5.3725 24 0 18.6275 0 12Z" fill="#FFFEFE"/>
<path fill-rule="evenodd" clip-rule="evenodd" d="M9.59151 22.736C9.49485 22.611 9.49485 21.4987 9.59151 19.399C8.55585 19.435 7.90135 19.3632 7.62801 19.1835C7.21851 18.914 6.80801 18.0835 6.44451 17.498C6.08101 16.9125 5.27301 16.82 4.94701 16.689C4.62101 16.5585 4.53901 16.025 5.84551 16.428C7.15201 16.8315 7.21551 17.9305 7.62801 18.187C8.04051 18.444 9.02601 18.332 9.47251 18.126C9.91901 17.92 9.88601 17.154 9.96601 16.8505C10.0665 16.567 9.71151 16.504 9.70401 16.502C9.26751 16.502 6.97701 16.0035 6.34751 13.7855C5.71851 11.567 6.52901 10.117 6.96151 9.494C7.24951 9.078 7.22401 8.19233 6.88501 6.837C8.11701 6.679 9.06751 7.06666 9.73651 8C9.73751 8.005 10.6145 7.4785 12 7.4785C13.3855 7.4785 13.8775 7.9075 14.257 8C14.6365 8.0925 14.94 6.367 17.2835 6.837C16.794 7.7985 16.3845 9 16.697 9.494C17.01 9.9875 18.237 11.5575 17.4835 13.7855C16.9805 15.2705 15.9923 16.176 14.519 16.502C14.3503 16.556 14.266 16.643 14.266 16.763C14.266 16.943 14.494 16.9625 14.823 17.806C15.043 18.368 15.059 19.9738 14.871 22.6235C14.3953 22.7445 14.0253 22.8258 13.761 22.8675C13.2925 22.941 12.7835 22.9825 12.2835 22.998C11.7835 23.014 11.61 23.0125 10.9185 22.948C10.4719 22.9072 10.0286 22.8363 9.59151 22.736Z" fill="#FFFEFE"/>
</svg>
