<svg width="30" height="30" viewBox="0 0 30 30" fill="none" xmlns="http://www.w3.org/2000/svg">
<path d="M0.76001 4.76001C0.76001 2.55087 2.55087 0.76001 4.76001 0.76001H25.24C27.4491 0.76001 29.24 2.55087 29.24 4.76001V25.24C29.24 27.4491 27.4491 29.24 25.24 29.24H4.76001C2.55087 29.24 0.76001 27.4491 0.76001 25.24V4.76001Z" fill="#F7DF1E"/>
<path d="M8.24865 24.5599L10.428 23.2409C10.8486 23.9864 11.231 24.6172 12.1485 24.6172C13.0279 24.6172 13.5825 24.2732 13.5825 22.9351V13.8351H16.2589V22.9729C16.2589 25.745 14.634 27.0068 12.2632 27.0068C10.1222 27.0068 8.87943 25.8979 8.24854 24.5597M17.7126 24.2731L19.8917 23.0114C20.4655 23.9483 21.2111 24.6365 22.53 24.6365C23.6391 24.6365 24.3462 24.082 24.3462 23.3173C24.3462 22.3997 23.6197 22.0746 22.3962 21.5395L21.7273 21.2525C19.7963 20.4307 18.5155 19.3983 18.5155 17.2189C18.5155 15.2115 20.0448 13.682 22.4346 13.682C24.136 13.682 25.3596 14.2747 26.2389 15.8232L24.1549 17.1616C23.696 16.3395 23.1992 16.0146 22.4345 16.0146C21.6506 16.0146 21.1535 16.5116 21.1535 17.1616C21.1535 17.9645 21.6506 18.2896 22.7976 18.7867L23.4666 19.0734C25.7417 20.0485 27.0225 21.0425 27.0225 23.2791C27.0225 25.6881 25.1299 27.0071 22.5873 27.0071C20.1021 27.0071 18.4962 25.8218 17.7125 24.2732" fill="black"/>
</svg>
